<mxfile host="app.diagrams.net" agent="Mozilla/5.0 (Windows NT 10.0; Win64; x64) AppleWebKit/537.36 (KHTML, like Gecko) Chrome/135.0.0.0 Safari/537.36" version="26.2.9">
  <diagram name="Page-1" id="cIU6eeP-djC4dK7x-fhZ">
    <mxGraphModel dx="1044" dy="562" grid="0" gridSize="10" guides="1" tooltips="1" connect="1" arrows="1" fold="1" page="1" pageScale="1" pageWidth="1169" pageHeight="827" background="light-dark(#ffffff, #f5efef)" math="0" shadow="0">
      <root>
        <mxCell id="0" />
        <mxCell id="1" parent="0" />
        <object label="" Switch="Switch" id="_nmwgqTeBemc5d6kzkCD-1">
          <mxCell style="rounded=0;whiteSpace=wrap;html=1;labelBackgroundColor=none;fillColor=#09555B;strokeColor=#BAC8D3;fontColor=#EEEEEE;" vertex="1" parent="1">
            <mxGeometry x="385" y="284" width="120" height="60" as="geometry" />
          </mxCell>
        </object>
        <mxCell id="_nmwgqTeBemc5d6kzkCD-2" value="" style="whiteSpace=wrap;html=1;aspect=fixed;labelBackgroundColor=none;fillColor=#09555B;strokeColor=#BAC8D3;fontColor=#EEEEEE;" vertex="1" parent="1">
          <mxGeometry x="295" y="144" width="80" height="80" as="geometry" />
        </mxCell>
        <mxCell id="_nmwgqTeBemc5d6kzkCD-3" value="" style="whiteSpace=wrap;html=1;aspect=fixed;labelBackgroundColor=none;fillColor=#09555B;strokeColor=#BAC8D3;fontColor=#EEEEEE;" vertex="1" parent="1">
          <mxGeometry x="495" y="144" width="80" height="80" as="geometry" />
        </mxCell>
        <mxCell id="_nmwgqTeBemc5d6kzkCD-4" value="" style="whiteSpace=wrap;html=1;aspect=fixed;labelBackgroundColor=none;fillColor=#09555B;strokeColor=#BAC8D3;fontColor=#EEEEEE;" vertex="1" parent="1">
          <mxGeometry x="295" y="404" width="80" height="80" as="geometry" />
        </mxCell>
        <mxCell id="_nmwgqTeBemc5d6kzkCD-5" value="" style="whiteSpace=wrap;html=1;aspect=fixed;labelBackgroundColor=none;fillColor=#09555B;strokeColor=#BAC8D3;fontColor=#EEEEEE;" vertex="1" parent="1">
          <mxGeometry x="505" y="404" width="80" height="80" as="geometry" />
        </mxCell>
        <mxCell id="_nmwgqTeBemc5d6kzkCD-6" value="" style="endArrow=none;html=1;rounded=0;exitX=1;exitY=0;exitDx=0;exitDy=0;entryX=0.5;entryY=1;entryDx=0;entryDy=0;labelBackgroundColor=none;strokeColor=#0B4D6A;fontColor=default;" edge="1" parent="1" source="_nmwgqTeBemc5d6kzkCD-1" target="_nmwgqTeBemc5d6kzkCD-3">
          <mxGeometry width="50" height="50" relative="1" as="geometry">
            <mxPoint x="665" y="334" as="sourcePoint" />
            <mxPoint x="715" y="284" as="targetPoint" />
          </mxGeometry>
        </mxCell>
        <mxCell id="_nmwgqTeBemc5d6kzkCD-7" value="" style="endArrow=none;html=1;rounded=0;exitX=0;exitY=0;exitDx=0;exitDy=0;entryX=0.5;entryY=1;entryDx=0;entryDy=0;labelBackgroundColor=none;strokeColor=#0B4D6A;fontColor=default;" edge="1" parent="1" source="_nmwgqTeBemc5d6kzkCD-1" target="_nmwgqTeBemc5d6kzkCD-2">
          <mxGeometry width="50" height="50" relative="1" as="geometry">
            <mxPoint x="505" y="294" as="sourcePoint" />
            <mxPoint x="529" y="234" as="targetPoint" />
          </mxGeometry>
        </mxCell>
        <mxCell id="_nmwgqTeBemc5d6kzkCD-8" value="" style="endArrow=none;html=1;rounded=0;exitX=1;exitY=1;exitDx=0;exitDy=0;entryX=0.5;entryY=0;entryDx=0;entryDy=0;labelBackgroundColor=none;strokeColor=#0B4D6A;fontColor=default;" edge="1" parent="1" source="_nmwgqTeBemc5d6kzkCD-1" target="_nmwgqTeBemc5d6kzkCD-5">
          <mxGeometry width="50" height="50" relative="1" as="geometry">
            <mxPoint x="505" y="294" as="sourcePoint" />
            <mxPoint x="545" y="234" as="targetPoint" />
          </mxGeometry>
        </mxCell>
        <mxCell id="_nmwgqTeBemc5d6kzkCD-9" value="" style="endArrow=none;html=1;rounded=0;exitX=0.5;exitY=0;exitDx=0;exitDy=0;entryX=0;entryY=1;entryDx=0;entryDy=0;labelBackgroundColor=none;strokeColor=#0B4D6A;fontColor=default;" edge="1" parent="1" source="_nmwgqTeBemc5d6kzkCD-4" target="_nmwgqTeBemc5d6kzkCD-1">
          <mxGeometry width="50" height="50" relative="1" as="geometry">
            <mxPoint x="505" y="354" as="sourcePoint" />
            <mxPoint x="555" y="414" as="targetPoint" />
          </mxGeometry>
        </mxCell>
        <mxCell id="_nmwgqTeBemc5d6kzkCD-11" value="&lt;h1&gt;&lt;b&gt;Switch&amp;nbsp;&lt;/b&gt;&lt;/h1&gt;" style="text;strokeColor=none;align=center;fillColor=none;html=1;verticalAlign=middle;whiteSpace=wrap;rounded=0;fontColor=#EEEEEE;" vertex="1" parent="1">
          <mxGeometry x="415" y="299" width="60" height="30" as="geometry" />
        </mxCell>
        <mxCell id="_nmwgqTeBemc5d6kzkCD-13" value="&lt;h1&gt;PC01&lt;/h1&gt;" style="text;strokeColor=none;align=center;fillColor=none;html=1;verticalAlign=middle;whiteSpace=wrap;rounded=0;fontColor=#EEEEEE;" vertex="1" parent="1">
          <mxGeometry x="305" y="174" width="60" height="30" as="geometry" />
        </mxCell>
        <mxCell id="_nmwgqTeBemc5d6kzkCD-14" value="&lt;h1&gt;PC02&lt;/h1&gt;" style="text;strokeColor=none;align=center;fillColor=none;html=1;verticalAlign=middle;whiteSpace=wrap;rounded=0;fontColor=#EEEEEE;" vertex="1" parent="1">
          <mxGeometry x="505" y="169" width="60" height="30" as="geometry" />
        </mxCell>
        <mxCell id="_nmwgqTeBemc5d6kzkCD-15" value="&lt;h1&gt;PC04&lt;/h1&gt;" style="text;strokeColor=none;align=center;fillColor=none;html=1;verticalAlign=middle;whiteSpace=wrap;rounded=0;fontColor=#EEEEEE;" vertex="1" parent="1">
          <mxGeometry x="515" y="429" width="60" height="30" as="geometry" />
        </mxCell>
        <mxCell id="_nmwgqTeBemc5d6kzkCD-16" value="&lt;h1&gt;PC03&lt;/h1&gt;" style="text;strokeColor=none;align=center;fillColor=none;html=1;verticalAlign=middle;whiteSpace=wrap;rounded=0;fontColor=#EEEEEE;" vertex="1" parent="1">
          <mxGeometry x="305" y="428" width="60" height="30" as="geometry" />
        </mxCell>
        <mxCell id="_nmwgqTeBemc5d6kzkCD-59" value="&lt;h1&gt;Farhaz Khondoker&lt;/h1&gt;" style="text;strokeColor=none;align=center;fillColor=none;html=1;verticalAlign=middle;whiteSpace=wrap;rounded=0;fontColor=#EEEEEE;" vertex="1" parent="1">
          <mxGeometry x="350" y="43" width="160" height="71" as="geometry" />
        </mxCell>
      </root>
    </mxGraphModel>
  </diagram>
</mxfile>
